<svg fill="none" height="144" viewBox="0 0 79 139" width="80" xmlns="http://www.w3.org/2000/svg"><g fill="#ffda00"><path d="m62.3711 6 2.8064 8.6373h9.0818l-7.3473 5.3381 2.8064 8.6373-7.3473-5.3381-7.3473 5.3381 2.8064-8.6373-7.3473-5.3381h9.0818z"/><path d="m10.5136 3.41309 2.2555 6.94151h7.2987l-5.9048 4.2901 2.2555 6.9415-5.9049-4.2901-5.90477 4.2901 2.25544-6.9415-5.904816-4.2901h7.298756z"/><path d="m37.3025 85.1191 1.654 5.0905h5.3524l-4.3302 3.1461 1.654 5.0904-4.3302-3.1461-4.3302 3.1461 1.654-5.0904-4.3302-3.1461h5.3524z"/><path d="m73.4674 63.688 1.0525 3.2394h3.4061l-2.7556 2.002 1.0525 3.2394-2.7555-2.0021-2.7556 2.0021 1.0525-3.2394-2.7556-2.002h3.4061z"/><path d="m17.8801 50.2935.6014 1.851h1.9464l-1.5747 1.1441.6015 1.851-1.5746-1.144-1.5746 1.144.6014-1.851-1.5746-1.1441h1.9463z"/></g></svg>